<svg xmlns="http://www.w3.org/2000/svg" viewBox="0 0 120 120"><circle cx="60" cy="60" r="58" fill="#1a5cff"/><circle cx="60" cy="60" r="50" fill="#fff"/><path d="M22 74A40 40 0 0 1 60 20" fill="none" stroke="#1a5cff" stroke-width="3.5" stroke-linecap="round" opacity=".85"/><path d="M63 80c-1-14 0-26 5-36" stroke="#a5521a" stroke-width="5" stroke-linecap="round" fill="none"/><g fill="#4caf1f"><path d="M68 44c-12-12-24-10-32-2 12-2 22 0 32 2z"/><path d="M68 44c4-14 14-20 24-18-8 4-14 10-24 18z"/><path d="M68 44c10-6 22-4 28 4-12-2-20-2-28-4z"/><path d="M68 44c-8 6-10 16-6 24 2-10 4-16 6-24z"/></g><text x="60" y="88" text-anchor="middle" font-family="Arial Black,Arial,sans-serif" font-weight="900" font-size="13.5" letter-spacing="-.4"><tspan fill="#3f9a1c">TECHNO</tspan><tspan fill="#1a5cff">MAR</tspan></text><text x="60" y="99" text-anchor="middle" font-family="Arial,sans-serif" font-weight="700" font-size="6" letter-spacing="3" fill="#1a5cff">MARGARITA</text></svg>
